<svg width="109.333" height="86.626" xmlns="http://www.w3.org/2000/svg">
  <defs>
    <clipPath clipPathUnits="userSpaceOnUse" id="prefix__a">
      <path d="M0 2000h749V0H0z" transform="translate(-219.001 -579.823)" />
    </clipPath>
    <clipPath clipPathUnits="userSpaceOnUse" id="prefix__b">
      <path d="M0 2000h749V0H0z" transform="translate(-192.018 -574.61)" />
    </clipPath>
    <clipPath clipPathUnits="userSpaceOnUse" id="prefix__c">
      <path d="M0 2000h749V0H0z" transform="translate(-187.177 -581.569)" />
    </clipPath>
    <clipPath clipPathUnits="userSpaceOnUse" id="prefix__d">
      <path d="M0 2000h749V0H0z" transform="translate(-186.606 -576.568)" />
    </clipPath>
    <clipPath clipPathUnits="userSpaceOnUse" id="prefix__e">
      <path d="M0 2000h749V0H0z" transform="translate(-183.706 -575.753)" />
    </clipPath>
    <clipPath clipPathUnits="userSpaceOnUse" id="prefix__f">
      <path d="M0 2000h749V0H0z" transform="translate(-184.826 -575.7)" />
    </clipPath>
    <clipPath clipPathUnits="userSpaceOnUse" id="prefix__g">
      <path d="M0 2000h749V0H0z" transform="translate(-184.286 -575.36)" />
    </clipPath>
    <clipPath clipPathUnits="userSpaceOnUse" id="prefix__h">
      <path d="M0 2000h749V0H0z" transform="translate(-184.074 -576.136)" />
    </clipPath>
    <clipPath clipPathUnits="userSpaceOnUse" id="prefix__i">
      <path d="M0 2000h749V0H0z" transform="translate(-184.074 -576.136)" />
    </clipPath>
    <clipPath clipPathUnits="userSpaceOnUse" id="prefix__j">
      <path d="M0 2000h749V0H0z" transform="translate(-159.653 -586.434)" />
    </clipPath>
    <clipPath clipPathUnits="userSpaceOnUse" id="prefix__k">
      <path d="M0 2000h749V0H0z" transform="translate(-160.988 -584.804)" />
    </clipPath>
    <clipPath clipPathUnits="userSpaceOnUse" id="prefix__l">
      <path d="M0 2000h749V0H0z" transform="translate(-156.623 -583.205)" />
    </clipPath>
    <clipPath clipPathUnits="userSpaceOnUse" id="prefix__m">
      <path d="M0 2000h749V0H0z" transform="translate(-156.623 -583.205)" />
    </clipPath>
    <clipPath clipPathUnits="userSpaceOnUse" id="prefix__n">
      <path d="M0 2000h749V0H0z" transform="translate(-157.08 -582.284)" />
    </clipPath>
    <clipPath clipPathUnits="userSpaceOnUse" id="prefix__o">
      <path d="M0 2000h749V0H0z" transform="translate(-156.232 -582.918)" />
    </clipPath>
    <clipPath clipPathUnits="userSpaceOnUse" id="prefix__p">
      <path d="M0 2000h749V0H0z" transform="translate(-157.08 -582.284)" />
    </clipPath>
    <clipPath clipPathUnits="userSpaceOnUse" id="prefix__q">
      <path d="M0 2000h749V0H0z" transform="translate(-157.503 -582.466)" />
    </clipPath>
    <clipPath clipPathUnits="userSpaceOnUse" id="prefix__r">
      <path d="M0 2000h749V0H0z" transform="translate(-164.427 -565.355)" />
    </clipPath>
    <clipPath clipPathUnits="userSpaceOnUse" id="prefix__s">
      <path d="M0 2000h749V0H0z" transform="translate(-185.196 -582.785)" />
    </clipPath>
    <clipPath clipPathUnits="userSpaceOnUse" id="prefix__t">
      <path d="M0 2000h749V0H0z" transform="translate(-211.419 -555.507)" />
    </clipPath>
    <clipPath clipPathUnits="userSpaceOnUse" id="prefix__u">
      <path d="M0 2000h749V0H0z" transform="translate(-156.623 -583.205)" />
    </clipPath>
    <clipPath clipPathUnits="userSpaceOnUse" id="prefix__v">
      <path d="M0 2000h749V0H0z" transform="translate(-195.766 -587.448)" />
    </clipPath>
    <clipPath clipPathUnits="userSpaceOnUse" id="prefix__w">
      <path d="M0 2000h749V0H0z" transform="translate(-171.636 -584.838)" />
    </clipPath>
    <clipPath clipPathUnits="userSpaceOnUse" id="prefix__x">
      <path d="M0 2000h749V0H0z" transform="translate(-170.57 -592.675)" />
    </clipPath>
    <clipPath clipPathUnits="userSpaceOnUse" id="prefix__y">
      <path d="M0 2000h749V0H0z" transform="translate(-171.415 -574.924)" />
    </clipPath>
    <clipPath clipPathUnits="userSpaceOnUse" id="prefix__z">
      <path d="M0 2000h749V0H0z" transform="translate(-188 -600.283)" />
    </clipPath>
  </defs>
  <path
    d="M0 0c-1.359 2.318-2.466 2.116-3.996 1.543a1.507 1.507 0 00-1.998 1.719c.69 3.315 1.635 7.853.607 10.068-.613 1.322-1.33 2.087-2.132 2.274-.868.203-1.971-.23-3.279-1.286a1.495 1.495 0 00-1.57-.197c-.52.238-.856.742-.875 1.314-.118 3.52-2.448 7.821-6.006 8.629-1.63.369-2.92-.268-3.95-1.948a1.342 1.342 0 00-2.444.354c-.809 2.995-3.905 8.453-7.666 8.087-2.748-.257-3.213-2.013-3.455-3.789-.087-.638-.177-1.297-.87-1.506-.196-.059-.707-.141-1.172.389-.821.936-4.666 4.402-8.576 4.402l-.08-.001c-1.289-.015-2.027-1.077-2.289-2.066-.432-1.634.152-3.856 2.312-5.357 4.621.509 10.056-.008 16.438-2.169C-8.814 12.945-2.749-13.269-1.278-22.556 1.563-15.896 2.411-4.113 0 0"
    transform="matrix(1.33333 0 0 -1.33333 104.958 43.32)" clip-path="url(#prefix__a)" fill="#fff" />
  <path
    d="M0 0c-4.218-1.982-8.25-1.587-12.109.962-.14.092-.335.195-.372.33-.083.294-.212.712-.075.893.132.175.63.243.868.136.591-.264 1.123-.658 1.684-.991.154-.092.326-.154.573-.268-1.737 2.611-1.526 5.218.548 7.48-.766-.255-1.537-.497-2.296-.77-.451-.161-.948-.364-1.195.195-.251.566.187.898.653 1.111 2.133.973 4.373 1.165 6.662.807.44-.069.867-.163 1.288-.268 2.148-.537 4.037-1.57 5.492-3.396.09-.113.183-.226.261-.347.255-.396.289-.794-.128-1.086-.403-.281-.711-.059-.997.264C.318 5.66-.245 6.247-.767 6.81c.042-.118.064-.241.097-.361.224-.842.219-1.74.059-2.832C-.816 2.306-1.299 1.589-2.01.668c.467.193.94.371 1.397.583.447.207.87.259 1.124-.237C.779.491.427.201 0 0m-14.365-5.343c-.633-.845-1.428-1.56-2.267-2.196-2.976-2.253-7.472-3.542-10.959-1.715-1.824.955-3.315 2.86-3.843 4.86-.252.956 1.227 1.36 1.478.407.171-.645.43-1.144.8-1.734 1.757-2.805 4.973-3.306 7.995-2.426a11.268 11.268 0 014.122 2.233c.377.32.737.662 1.07 1.027.103.113.201.229.3.345.117.138.01.011-.019-.028.585.781 1.916.016 1.323-.773M-39.303 7.811c-.176.126-.395.255-.487.415-.183.316-.268.617-.129.974.29.189.775.211 1.025.043.77-.516 1.005-.674 1.788-1.111.115-.064.564-.239.768-.305-1.8 2.254-1.374 4.989 1.677 6.527-.434.025-.673.048-.912.05-.47.004-.91.08-.934.662-.027.641.461.739.941.731 2.478-.043 4.86-.489 6.938-1.927.663-.459 1.232-1.069 1.783-1.666.331-.36.453-.854-.063-1.19-.489-.317-.795.037-1.08.398a6.044 6.044 0 01-.809.836c.7-1.897.362-3.51-1.258-4.895.196-.013.323-.022.426-.035.371-.044.607-.227.646-.523.033-.253-.066-.568-.423-.775-.459-.267-1.498-.432-2.256-.447-2.77-.056-5.356.6-7.641 2.238m6.927 11.659c1.568.033 7.846-.236 9.415-.226.826.005 1.294-.409 1.513-1.178.165-.579.359-1.15.535-1.725.242-.79-.002-1.07-.794-.86-1.633.432-3.257.895-4.887 1.338-1.792.486-3.586.963-5.378 1.445-.21.057-.46.071-.615.198-.203.167-.331.426-.491.645.234.127.465.358.702.363m11.994-9.242c.424.457 1.259.1 1.237-.523l-.001-.016c-.02-.339-.246-.674-.414-.994-1.44-2.752-3.866-5.642-8.206-6.563 1.311-.991 2.52-1.906 3.73-2.818.713-.538 1.429-1.074 2.145-1.609.377-.282.69-.618.34-1.086-.36-.483-.792-.32-1.202-.012-2.454 1.841-4.91 3.679-7.364 5.52-.154.116-.358.224-.424.384-.101.245-.215.588-.115.784.098.193.47.381.696.354 4.458-.547 6.985 2.064 9.023 5.48.209.35.286.8.549 1.092l.006.007m-.221-9.914c-.787.986.383 1.919 1.335 1.194 1.277-.972.094-2.983-1.335-1.194m10.696 17.052c.222.203.679.324.968.249a847.3 847.3 0 0012.931-3.5c.305-.085.717-.533.716-.81-.005-.542-.549-.49-.96-.467-1.231.07-2.461.15-3.692.226l.001.007-7.614.416c-1.226.067-2.453.132-3.681.2-.214.012-.435.05-.636.124-.632.23-.783.747-.328 1.237a48.808 48.808 0 001.553 1.599c.245.242.487.488.742.719m34.133-38.16c-.004.05-.07.801-.245 2.048-1.078 7.709-6.427 35.089-28.614 42.604-5.516 1.869-10.583 2.579-15.188 2.163-.379-.034-.761-.062-1.133-.111l-.019-.033-.036.024c-4.858-.658-9.174-2.627-12.911-5.91-5.615-4.93-7.754-11.092-7.775-11.154l-.188-.555-.58-.085c-.035-.005-3.769-.601-5.88-3.615-1.439-2.056-1.828-4.79-1.155-8.126.879-4.357 4.877-7.515 8.076-9.398 8.622-5.075 21.592-7.072 29.53-4.548l.29-.913.29-.913c-4.349-1.383-10.11-1.484-15.909-.528l-2.146-5.596s2.808 2.355 11.639 2.635c6.997.222 17.781-1.095 26.119-2.366A19.16 19.16 0 004.95-23c-2.214-1.025-4.292-.798-6.245.607-1.548 1.112-2.269 2.987-1.829 4.705.441 1.724 1.956 2.981 3.879 3.214.358.044.716.078 1.079.117 0 .598-.051 1.178.014 1.744.081.713.149 1.458.414 2.112.516 1.271 1.791 1.569 2.747.591.71-.727 1.371-1.601 1.746-2.534.57-1.421.853-2.955 1.304-4.427.099-.324.326-.713.606-.86 1.822-.962 3.826-1.311 5.841-1.562 1.634-.205 3.271-.278 4.895.19.229.067.707-.189.831-.422.205-.383-.02-.79-.463-.893-.725-.169-1.465-.349-2.204-.374-3.273-.113-6.442.373-9.457 1.738-.958.434-1.421 1.037-1.506 2.127-.148 1.902-.801 3.68-1.869 5.271-.229.342-.68.535-1.029.797-.14-.394-.384-.784-.397-1.182-.03-.864.006-1.739.11-2.597.134-1.098-.095-1.374-1.172-1.214-1.874.281-3.611-.662-4.026-2.185-.394-1.443.596-3.115 2.312-3.817 1.265-.517 2.557-.558 3.77.141.618.357 1.058.21 1.572-.182 3.62-2.763 7.707-4.14 12.27-4.064.264.005.53.037.79.083.419.074.791.012.95-.354 3.204 1.061 5.298 4.131 5.298 5.51z"
    transform="matrix(1.33333 0 0 -1.33333 68.98 50.271)" clip-path="url(#prefix__b)" fill="#fff" />
  <path
    d="M0 0c-.246.942-1.04 1.429-1.98 1.216C-3.119.958-3.999-.259-3.986-1.56c.014-1.468 1.17-2.281 2.43-1.711C-.39-2.742.324-1.242 0 0"
    transform="matrix(1.33333 0 0 -1.33333 62.526 40.992)" clip-path="url(#prefix__c)" fill="#fff" />
  <path
    d="M0 0c.017-.744.572-1.301 1.276-1.279.931.029 1.775.95 1.77 1.933-.004.794-.484 1.319-1.208 1.32C.921 1.975-.021.963 0 0"
    transform="matrix(1.33333 0 0 -1.33333 61.765 47.66)" clip-path="url(#prefix__d)" fill="#fff" />
  <path d="M0 0c.191-.138.367-.32.58-.393.094-.033.264.158.54.34C.777.159.586.339.368.383.275.402.125.136 0 0"
    transform="matrix(1.33333 0 0 -1.33333 57.898 48.747)" clip-path="url(#prefix__e)" fill="#fff" />
  <path d="M0 0c-.276-.182-.447-.373-.54-.34.221-.049.64.11.54.34"
    transform="matrix(1.33333 0 0 -1.33333 59.392 48.818)" clip-path="url(#prefix__f)" fill="#fff" />
  <path d="M0 0c-.213.073-.389.255-.58.393C-.53.239-.22.049 0 0" transform="matrix(1.33333 0 0 -1.33333 58.671 49.272)"
    clip-path="url(#prefix__g)" fill="#fff" />
  <path d="M0 0c.218-.044.409-.224.752-.436C.633-.258.235.001 0 0"
    transform="matrix(1.33333 0 0 -1.33333 58.388 48.236)" clip-path="url(#prefix__h)" fill="#fff" />
  <path d="M0 0c-.095 0-.431-.095-.368-.383.125.136.275.402.368.383"
    transform="matrix(1.33333 0 0 -1.33333 58.388 48.236)" clip-path="url(#prefix__i)" fill="#fff" />
  <path
    d="M0 0c.008.756-.456 1.244-1.188 1.248-.941.005-1.864-.907-1.873-1.849-.007-.734.488-1.25 1.202-1.254C-.903-1.86-.01-.97 0 0"
    transform="matrix(1.33333 0 0 -1.33333 25.828 34.506)" clip-path="url(#prefix__j)" fill="#fff" />
  <path
    d="M0 0c-.976-.008-1.956-.98-1.977-1.961-.013-.647.379-1.051 1.017-1.045.963.008 1.963.998 1.984 1.964C1.038-.401.639.005 0 0"
    transform="matrix(1.33333 0 0 -1.33333 27.608 36.68)" clip-path="url(#prefix__k)" fill="#fff" />
  <path
    d="M0 0c-.084.031-.258-.185-.391-.288.28-.217.545-.458.849-.633.079-.046.278.116.422.182l.038.258C.615-.314.322-.117 0 0"
    transform="matrix(1.33333 0 0 -1.33333 21.788 38.81)" clip-path="url(#prefix__l)" fill="#fff" />
  <path d="M0 0c.322-.117.615-.314.918-.481C.792-.349.32-.039 0 0" transform="matrix(1.33333 0 0 -1.33333 21.788 38.81)"
    clip-path="url(#prefix__m)" fill="#fff" />
  <path d="M0 0c-.304.175-.569.417-.849.634C-.818.458-.304.175 0 0"
    transform="matrix(1.33333 0 0 -1.33333 22.398 40.039)" clip-path="url(#prefix__n)" fill="#fff" />
  <path d="M0 0c.133.103.307.318.391.288C.302.299-.025.188 0 0" transform="matrix(1.33333 0 0 -1.33333 21.266 39.194)"
    clip-path="url(#prefix__o)" fill="#fff" />
  <path d="M0 0c.08-.046.315.054.423.182C.279.116.08-.046 0 0" transform="matrix(1.33333 0 0 -1.33333 22.398 40.039)"
    clip-path="url(#prefix__p)" fill="#fff" />
  <path d="M0 0c.038.085.101.172.038.258L0 0" transform="matrix(1.33333 0 0 -1.33333 22.961 39.796)"
    clip-path="url(#prefix__q)" fill="#fff" />
  <path
    d="M0 0c3.487-1.827 7.983-.538 10.959 1.716.839.635 1.634 1.35 2.268 2.195.592.79-.739 1.555-1.324.774.029.039.136.166.019.027-.099-.116-.197-.232-.3-.344a11.673 11.673 0 00-1.07-1.028A11.283 11.283 0 006.43 1.107C3.408.228.192.728-1.565 3.533c-.37.59-.629 1.09-.8 1.735-.251.953-1.73.548-1.478-.408C-3.315 2.86-1.824.956 0 0"
    transform="matrix(1.33333 0 0 -1.33333 32.193 62.61)" clip-path="url(#prefix__r)" fill="#1a1f22" />
  <path
    d="M0 0c.941.213 1.735-.275 1.98-1.216.324-1.242-.39-2.743-1.556-3.271-1.26-.57-2.416.243-2.43 1.711C-2.018-1.475-1.139-.258 0 0m3.248-4.243c.724-.001 1.204-.526 1.208-1.32.004-.983-.839-1.904-1.77-1.933-.704-.022-1.26.535-1.276 1.279-.022.963.921 1.975 1.838 1.974M-.911-7.426c-.22.049-.53.239-.579.394-.064.288.272.382.367.383.235.001.633-.258.753-.436.099-.23-.319-.39-.541-.341m-3.955 1.572c-.238.106-.737.039-.868-.136-.137-.182-.008-.599.074-.894.038-.135.233-.237.373-.33 3.859-2.549 7.891-2.943 12.109-.961.427.2.779.49.511 1.014-.255.496-.677.443-1.124.236-.458-.212-.931-.39-1.397-.582.71.92 1.193 1.637 1.398 2.949.161 1.092.165 1.99-.059 2.831-.032.121-.054.243-.097.362.523-.563 1.086-1.15 1.624-1.759.287-.323.595-.544.997-.263.417.291.383.69.128 1.085-.078.122-.17.235-.261.348C7.088-.128 5.199.904 3.051 1.442c-.421.105-.848.198-1.288.267-2.29.359-4.529.167-6.663-.807-.465-.212-.903-.544-.652-1.111.247-.558.743-.356 1.194-.194.76.273 1.53.514 2.296.769-2.074-2.262-2.284-4.868-.548-7.48-.246.114-.419.176-.573.268-.56.334-1.092.728-1.683.992"
    transform="matrix(1.33333 0 0 -1.33333 59.886 39.37)" clip-path="url(#prefix__s)" fill="#1a1f22" />
  <path
    d="M0 0c-1.624-.468-3.26-.395-4.895-.191-2.015.252-4.019.601-5.841 1.562-.28.148-.506.536-.606.86-.451 1.472-.734 3.006-1.304 4.427-.375.933-1.036 1.808-1.746 2.535-.956.978-2.231.679-2.746-.592-.266-.653-.334-1.399-.415-2.111-.065-.567-.013-1.147-.013-1.744-.364-.039-.722-.074-1.08-.117-1.923-.234-3.437-1.49-3.879-3.215-.44-1.717.281-3.592 1.829-4.705 1.953-1.405 4.031-1.631 6.245-.607a19.273 19.273 0 013.441-2.171c1.954-.963 4.049-1.594 6.246-1.943 1.483-.236 3.024-.127 4.538-.122.468.001.877.289.778.837-.013.071-.046.114-.07.169-.159.367-.531.429-.95.354a4.992 4.992 0 00-.79-.082c-4.563-.076-8.65 1.3-12.27 4.064-.514.392-.954.538-1.572.182-1.212-.699-2.505-.659-3.77-.141-1.716.702-2.706 2.374-2.312 3.817.415 1.522 2.152 2.465 4.026 2.185 1.077-.161 1.306.115 1.173 1.213a16.821 16.821 0 00-.111 2.597c.013.398.258.788.397 1.182.349-.261.8-.454 1.029-.796 1.068-1.591 1.721-3.369 1.869-5.271.085-1.09.548-1.694 1.507-2.128 3.014-1.365 6.183-1.85 9.457-1.737.738.025 1.478.205 2.203.373.443.103.668.511.464.894C.707-.189.229.066 0 0"
    transform="matrix(1.33333 0 0 -1.33333 94.849 75.741)" clip-path="url(#prefix__t)" fill="#1a1f22" />
  <path
    d="M0 0c.32-.039.792-.349.918-.481.063-.085 0-.173-.038-.258C.773-.867.537-.967.458-.921c-.304.175-.818.458-.849.633C-.416-.099-.089.011 0 0m1.843 4.476c.731-.003 1.196-.491 1.187-1.247-.01-.97-.902-1.86-1.859-1.855-.714.004-1.209.52-1.202 1.254.009.942.933 1.853 1.874 1.848M5.389.557C5.368-.41 4.368-1.4 3.405-1.408c-.638-.005-1.03.398-1.017 1.046.021.981 1.001 1.953 1.977 1.961.639.005 1.038-.401 1.024-1.042m-8.888.091c-.25.167-.735.145-1.025-.043-.139-.357-.054-.659.129-.975.092-.159.311-.288.487-.414C-1.623-2.423.963-3.078 3.733-3.023c.758.015 1.797.181 2.256.447.357.207.456.523.423.775-.039.297-.275.479-.646.524-.103.012-.23.022-.426.034C6.96.142 7.298 1.755 6.598 3.652c.311-.266.574-.539.809-.835.285-.361.591-.716 1.08-.398.516.335.394.83.063 1.189-.551.597-1.12 1.207-1.783 1.666-2.078 1.438-4.46 1.884-6.938 1.927-.48.009-.968-.089-.941-.731.024-.582.464-.658.934-.662.239-.002.478-.025.912-.05C-2.317 4.22-2.743 1.485-.943-.769a7.293 7.293 0 00-.768.306c-.783.437-1.018.595-1.788 1.111"
    transform="matrix(1.33333 0 0 -1.33333 21.788 38.81)" clip-path="url(#prefix__u)" fill="#1a1f22" />
  <path
    d="M0 0c.411-.023.955-.075.959.467.002.276-.41.725-.715.81a862.403 862.403 0 01-12.932 3.5c-.288.075-.745-.047-.968-.249-.254-.231-.496-.477-.742-.719A49.8 49.8 0 01-15.95 2.21c-.456-.49-.305-1.007.328-1.237.201-.074.422-.112.636-.124l3.681-.201 7.613-.415V.226C-2.461.15-1.231.07 0 0"
    transform="matrix(1.33333 0 0 -1.33333 73.979 33.154)" clip-path="url(#prefix__v)" fill="#1a1f22" />
  <path
    d="M0 0l-.007-.007c-.262-.292-.339-.742-.548-1.092-2.039-3.416-4.566-6.027-9.023-5.48-.226.027-.599-.161-.696-.354-.1-.196.013-.539.115-.784.065-.16.269-.268.423-.384 2.454-1.841 4.911-3.679 7.365-5.52.41-.308.841-.471 1.202.012.349.468.036.804-.341 1.086-.715.536-1.431 1.071-2.145 1.609-1.21.912-2.418 1.827-3.73 2.818 4.341.921 6.767 3.812 8.207 6.564.168.319.393.654.414.993v.016C1.259.101.424.457 0 0"
    transform="matrix(1.33333 0 0 -1.33333 41.805 36.634)" clip-path="url(#prefix__w)" fill="#1a1f22" />
  <path
    d="M0 0c-.219.77-.687 1.183-1.513 1.178-1.569-.01-7.847.259-9.416.227-.236-.005-.467-.237-.701-.364.16-.219.288-.478.491-.644.155-.127.405-.142.615-.198 1.792-.483 3.586-.959 5.378-1.446 1.63-.442 3.254-.906 4.887-1.338.792-.209 1.036.07.794.86C.359-1.149.165-.579 0 0"
    transform="matrix(1.33333 0 0 -1.33333 40.384 26.184)" clip-path="url(#prefix__x)" fill="#1a1f22" />
  <path d="M0 0c1.429-1.789 2.612.222 1.335 1.193C.383 1.918-.787.985 0 0"
    transform="matrix(1.33333 0 0 -1.33333 41.51 49.852)" clip-path="url(#prefix__y)" fill="#1a1f22" />
  <path
    d="M0 0c-6.382 2.161-11.817 2.678-16.438 2.169-2.16 1.501-2.744 3.722-2.312 5.357.262.989 1 2.051 2.29 2.066l.08.001c3.909 0 7.754-3.466 8.575-4.402.466-.53.976-.448 1.172-.389.693.208.783.868.87 1.506.242 1.776.707 3.531 3.455 3.789 3.761.366 6.857-5.092 7.667-8.087a1.342 1.342 0 012.443-.354c1.03 1.68 2.32 2.317 3.95 1.948 3.559-.808 5.888-5.109 6.007-8.629a1.49 1.49 0 01.874-1.314 1.495 1.495 0 011.57.197c1.309 1.056 2.411 1.489 3.279 1.286.802-.187 1.519-.952 2.133-2.274 1.027-2.215.082-6.753-.608-10.068a1.511 1.511 0 01.496-1.452c.415-.356.99-.459 1.502-.267 1.531.573 2.637.775 3.996-1.543 2.412-4.113 1.563-15.896-1.277-22.556C28.252-33.729 22.187-7.515 0 0m32.654-19.491c-1.777 3.031-3.799 3.137-5.627 2.601.887 4.343 1.462 8.116.326 10.566-.874 1.885-2.03 3.006-3.436 3.334-1.299.302-2.743-.097-4.298-1.192-.435 4.136-3.203 8.691-7.443 9.654-2.064.469-3.921-.188-5.322-1.858-1.281 3.492-4.635 8.825-9.341 8.391-3.637-.341-4.654-2.795-5.009-4.445-1.861 1.628-5.297 3.949-8.888 3.949h-.099c-1.948-.024-3.564-1.395-4.12-3.494-.497-1.881-.088-4.302 1.676-6.23-13.644-2.764-19.27-14.799-20.361-17.478-1.298-.305-4.514-1.328-6.593-4.28-1.763-2.505-2.26-5.742-1.477-9.623.806-3.997 3.912-7.687 8.983-10.671 4.353-2.563 9.779-4.363 15.172-5.251 5.799-.955 11.56-.855 15.909.528l-.29.913v.001l-.29.913c-7.938-2.524-20.908-.527-29.53 4.547-3.199 1.883-7.197 5.042-8.076 9.398-.673 3.337-.284 6.07 1.155 8.126 2.111 3.014 5.845 3.61 5.88 3.616l.58.084.188.555c.021.062 2.16 6.224 7.775 11.155C-26.165-2.4-21.849-.43-16.991.227c.012-.007.023-.016.036-.023l.019.032c.373.05.754.078 1.133.112C-11.198.763-6.131.054-.615-1.815 21.572-9.33 26.921-36.71 27.999-44.42c.175-1.246.325-4.05.329-4.099l.147.149c.621.63 1.182 1.317 1.677 2.05l.006-.004c4.109 6.36 5.531 21.657 2.496 26.833"
    transform="matrix(1.33333 0 0 -1.33333 63.624 16.04)" clip-path="url(#prefix__z)" fill="#1a1f22" />
</svg>